<?xml version="1.0" encoding="utf-8"?>
<!-- Generator: Adobe Illustrator 28.3.0, SVG Export Plug-In . SVG Version: 6.00 Build 0)  -->
<svg version="1.1" id="Calque_1" xmlns="http://www.w3.org/2000/svg" xmlns:xlink="http://www.w3.org/1999/xlink" x="0px" y="0px"
	 viewBox="0 0 595.28 841.89" style="enable-background:new 0 0 595.28 841.89;" xml:space="preserve">
<style type="text/css">
	.st0{fill:#222831;}
	.st1{fill:#76ABAE;}
</style>
<g>
	<path class="st0" d="M376.91,378.11l-0.08,0.16l0.13,0.11c0.59,0.8,0,1.76,0.45,2.59l-0.08,0.16l0.13,0.13
		c0.45,2.22,0.4,4.46,0.03,6.7c-0.16,0.11-0.16,0.21-0.05,0.35c-0.53,0.77,0.16,1.76-0.51,2.48v-0.03c-0.53,0.53,0.19,1.44-0.61,1.9
		l0.03-0.05c-0.11,0.37-0.11,0.77-0.4,1.07l0,0c-0.48,0.35,0.03,1.1-0.61,1.39l0.03-0.05c-0.16,0.35-0.08,0.8-0.53,1.01l0.03-0.05
		c-0.19,0.32-0.11,0.8-0.56,0.99l0.03-0.05c-0.19,0.59-0.56,1.07-0.99,1.52l0.03-0.03c-0.32,0.51-0.56,1.07-1.07,1.44l0.03-0.05
		c-0.08,0.24-0.27,0.4-0.48,0.56l0,0c-0.51,0.64-0.93,1.36-1.68,1.82l0.05-0.03c0,0.32-0.19,0.51-0.53,0.51l0.03-0.03
		c0,0.32-0.19,0.51-0.53,0.51l0.03-0.03c-0.48,0.72-1.23,1.12-1.92,1.58h0.03c-0.16,0.19-0.32,0.37-0.61,0.45l0.05-0.03
		c-0.37,0.51-0.99,0.72-1.52,1.02l0.03-0.03c-0.45,0.43-0.96,0.77-1.63,0.91l0.05-0.03c-0.16,0.48-0.67,0.37-1.04,0.53l0.05-0.03
		c-0.21,0.45-0.69,0.37-1.07,0.48l0.05-0.03c-0.29,0.67-1.1,0.16-1.47,0.59h0.03c-0.37,0.29-0.83,0.32-1.26,0.43l-0.16-0.05
		l-0.11,0.11c-0.45,0.43-1.12,0.08-1.58,0.43h0.03c-0.75,0.64-1.79-0.05-2.56,0.51h0.03c-2.7,0.45-5.4,0.4-8.09,0.03l-0.13-0.11
		l-0.16,0.08c-0.69-0.37-1.58,0.05-2.24-0.45H344c-0.56-0.53-1.5,0.13-2-0.56l0.05,0.03c-0.37-0.13-0.8-0.13-1.12-0.37l0,0
		c-0.37-0.48-1.15,0-1.47-0.59l0.05,0.03c-0.35-0.19-0.83-0.11-1.07-0.48l0.03,0.03c-0.32-0.21-0.83-0.13-1.04-0.51l0.05,0.03
		c-0.35-0.19-0.83-0.11-1.04-0.53l0.05,0.03c-0.35-0.16-0.85-0.08-1.04-0.53l0.05,0.03c-0.37-0.13-0.88-0.05-1.04-0.53l0.05,0.03
		c-0.96-0.32-1.82-0.8-2.67-1.31l0,0c-0.27-0.29-0.75-0.19-1.01-0.51h0.03c-0.29-0.27-0.77-0.19-1.01-0.51l0.03,0.03
		c-0.29-0.24-0.8-0.16-1.04-0.51l0.03,0.03c-0.32-0.21-0.8-0.13-1.04-0.51l0.05,0.03c-0.32-0.19-0.83-0.11-1.04-0.53l0.05,0.03
		c-0.35-0.19-0.85-0.08-1.04-0.53l0.05,0.03c-0.37-0.16-0.85-0.05-1.04-0.53l0.05,0.03c-0.96-0.32-1.82-0.8-2.67-1.34l0,0
		c-0.27-0.29-0.75-0.19-1.02-0.51h0.03c-0.29-0.27-0.77-0.19-1.01-0.51h0.03c-0.29-0.24-0.77-0.16-1.04-0.51l0.03,0.03
		c-0.32-0.21-0.8-0.13-1.04-0.51l0.05,0.03c-0.32-0.21-0.83-0.11-1.04-0.53l0.05,0.03c-0.35-0.19-0.85-0.08-1.04-0.53l0.05,0.03
		c-0.35-0.16-0.85-0.05-1.04-0.53l0.05,0.03c-0.37-0.13-0.88-0.03-1.04-0.53l0.05,0.03c-0.67-0.05-1.12-0.53-1.66-0.83l0,0
		c-0.27-0.29-0.75-0.21-1.01-0.51l0,0c-0.29-0.27-0.77-0.19-1.02-0.51h0.03c-0.29-0.24-0.77-0.16-1.02-0.51l0.03,0.03
		c-0.32-0.24-0.8-0.13-1.04-0.51l0.03,0.03c-0.32-0.21-0.83-0.13-1.04-0.51l0.05,0.03c-0.35-0.19-0.83-0.11-1.04-0.53l0.05,0.03
		c-0.35-0.16-0.85-0.08-1.04-0.53l0.05,0.03c-0.37-0.13-0.88-0.03-1.04-0.53l0.05,0.03c-0.99-0.29-1.84-0.8-2.67-1.31l0,0
		c-0.27-0.27-0.75-0.19-1.01-0.51h0.03c-0.29-0.27-0.77-0.16-1.01-0.51l0.03,0.03c-0.32-0.24-0.8-0.16-1.04-0.51l0.03,0.03
		c-0.32-0.21-0.83-0.13-1.04-0.51l0.05,0.03c-0.35-0.19-0.83-0.11-1.04-0.53l0.05,0.03c-0.35-0.16-0.85-0.08-1.04-0.53l0.05,0.03
		c-0.37-0.13-0.88-0.03-1.04-0.53l0.05,0.03c-0.96-0.29-1.82-0.8-2.67-1.31l0,0c-0.27-0.29-0.75-0.19-1.01-0.51h0.03
		c-0.29-0.27-0.77-0.19-1.01-0.51l0.03,0.03c-0.29-0.24-0.8-0.16-1.04-0.51l0.03,0.03c-0.32-0.21-0.8-0.13-1.04-0.51l0.05,0.03
		c-0.35-0.19-0.83-0.11-1.04-0.53l0.05,0.03c-0.35-0.19-0.85-0.08-1.04-0.53l0.05,0.03c-0.37-0.13-0.88-0.05-1.04-0.53l0.05,0.03
		c-0.96-0.32-1.82-0.8-2.67-1.34l0,0c-0.27-0.29-0.75-0.19-1.01-0.51h0.03c-0.29-0.27-0.77-0.19-1.01-0.51h0.03
		c-0.29-0.24-0.8-0.16-1.04-0.51l0.03,0.03c-0.32-0.21-0.8-0.13-1.04-0.51l0.05,0.03c-0.32-0.21-0.83-0.11-1.04-0.53l0.05,0.03
		c-0.35-0.19-0.85-0.08-1.04-0.53l0.05,0.03c-0.37-0.16-0.85-0.05-1.04-0.53l0.05,0.03c-0.96-0.32-1.82-0.8-2.67-1.34l0,0
		c-0.27-0.29-0.75-0.19-1.02-0.51h0.03c-0.29-0.27-0.77-0.19-1.02-0.51h0.03c-0.29-0.24-0.77-0.16-1.04-0.51l0.03,0.03
		c-0.32-0.24-0.8-0.13-1.04-0.51l0.05,0.03c-0.32-0.21-0.83-0.11-1.04-0.53l0.05,0.03c-0.35-0.19-0.85-0.08-1.04-0.53l0.05,0.03
		c-0.35-0.16-0.85-0.05-1.04-0.53l0.05,0.03c-0.37-0.13-0.88-0.03-1.04-0.53l0.05,0.03c-0.67-0.05-1.12-0.53-1.66-0.83l0,0
		c-0.27-0.29-0.75-0.21-1.01-0.51l0,0c-0.29-0.27-0.75-0.19-1.02-0.51h0.03c-0.29-0.24-0.77-0.16-1.02-0.51l0.03,0.03
		c-0.32-0.24-0.8-0.13-1.04-0.51l0.03,0.03c-0.32-0.21-0.83-0.13-1.04-0.51l0.05,0.03c-0.35-0.19-0.83-0.11-1.04-0.53l0.05,0.03
		c-0.35-0.16-0.85-0.08-1.04-0.53l0.05,0.03c-0.37-0.13-0.88-0.03-1.04-0.53l0.05,0.03c-0.96-0.29-1.82-0.8-2.67-1.31l0,0
		c-0.27-0.27-0.75-0.19-1.01-0.51h0.03c-0.29-0.27-0.77-0.16-1.01-0.51l0.03,0.03c-0.32-0.24-0.8-0.16-1.04-0.51l0.03,0.03
		c-0.32-0.21-0.83-0.13-1.04-0.51l0.05,0.03c-0.35-0.19-0.83-0.11-1.04-0.53l0.05,0.03c-0.35-0.16-0.85-0.08-1.04-0.53l0.05,0.03
		c-0.37-0.13-0.88-0.05-1.04-0.53l0.05,0.03c-0.96-0.29-1.82-0.8-2.67-1.31l0,0c-0.27-0.29-0.75-0.19-1.01-0.51h0.03
		c-0.29-0.27-0.77-0.19-1.01-0.51l0.03,0.03c-0.29-0.24-0.8-0.16-1.04-0.51l0.03,0.03c-0.32-0.21-0.8-0.13-1.04-0.51l0.05,0.03
		c-0.35-0.19-0.83-0.11-1.04-0.53l0.05,0.03c-0.35-0.19-0.85-0.08-1.04-0.53l0.05,0.03c-0.37-0.16-0.88-0.05-1.04-0.53l0.05,0.03
		c-0.96-0.32-1.82-0.8-2.67-1.34l0,0c-0.27-0.29-0.75-0.19-1.01-0.51h0.03c-0.29-0.27-0.77-0.19-1.01-0.51h0.03
		c-0.29-0.24-0.8-0.16-1.04-0.51l0.03,0.03c-0.32-0.21-0.8-0.13-1.04-0.51l0.05,0.03c-0.32-0.21-0.83-0.11-1.04-0.53l0.05,0.03
		c-0.35-0.19-0.85-0.08-1.04-0.53l0.03,0.03c-0.56-0.16-1.12-0.29-1.66,0.08h0.03c-0.27,0.29-0.75,0.21-1.01,0.51l0,0
		c-0.85,0.51-1.71,1.01-2.67,1.34l0.05-0.03c-0.16,0.48-0.67,0.37-1.04,0.53l0.05-0.03c-0.19,0.45-0.69,0.35-1.04,0.53l0.05-0.03
		c-0.21,0.43-0.72,0.32-1.04,0.53l0.05-0.03c-0.24,0.37-0.72,0.29-1.04,0.51l0.03-0.03c-0.24,0.35-0.72,0.27-1.04,0.51l0.03-0.03
		c-0.24,0.32-0.75,0.24-1.01,0.51h0.03c-0.27,0.29-0.75,0.21-1.01,0.51l0,0c-0.85,0.53-1.71,1.02-2.67,1.31l0.05-0.03
		c-0.16,0.48-0.67,0.4-1.04,0.53l0.05-0.03c-0.19,0.45-0.69,0.35-1.04,0.53l0.05-0.03c-0.21,0.43-0.69,0.32-1.04,0.53l0.05-0.03
		c-0.21,0.4-0.72,0.29-1.04,0.51l0.03-0.03c-0.24,0.37-0.72,0.27-1.04,0.51l0.03-0.03c-0.24,0.35-0.72,0.24-1.01,0.51h0.03
		c-0.27,0.32-0.75,0.21-1.01,0.51l0,0c-0.85,0.53-1.71,1.04-2.67,1.31l0.05-0.03c-0.16,0.51-0.67,0.4-1.04,0.53l0.05-0.03
		c-0.19,0.45-0.69,0.37-1.04,0.53l0.05-0.03c-0.21,0.43-0.69,0.35-1.04,0.53l0.05-0.03c-0.21,0.4-0.72,0.32-1.04,0.51l0.03-0.03
		c-0.24,0.37-0.72,0.29-1.04,0.51l0.03-0.03c-0.24,0.35-0.72,0.27-1.04,0.51h0.03c-0.27,0.32-0.75,0.24-1.01,0.51l0,0
		c-0.27,0.29-0.75,0.21-1.01,0.51l0,0c-0.53,0.29-0.99,0.75-1.66,0.83l0.05-0.03c-0.16,0.51-0.67,0.4-1.04,0.53l0.05-0.03
		c-0.19,0.48-0.69,0.37-1.04,0.53l0.05-0.03c-0.21,0.43-0.69,0.35-1.04,0.53l0.05-0.03c-0.21,0.4-0.72,0.32-1.04,0.53l0.05-0.03
		c-0.24,0.37-0.72,0.29-1.04,0.51l0.03-0.03c-0.24,0.35-0.72,0.27-1.04,0.51h0.03c-0.27,0.32-0.75,0.24-1.01,0.51h0.03
		c-0.27,0.29-0.75,0.21-1.01,0.51l0,0c-0.85,0.51-1.71,1.01-2.67,1.34l0.05-0.03c-0.19,0.48-0.69,0.37-1.04,0.53l0.05-0.03
		c-0.19,0.45-0.69,0.35-1.04,0.53l0.05-0.03c-0.21,0.4-0.72,0.32-1.04,0.53l0.05-0.03c-0.24,0.37-0.72,0.29-1.04,0.51l0.03-0.03
		c-0.24,0.35-0.72,0.27-1.04,0.51l0.03-0.03c-0.24,0.32-0.75,0.24-1.01,0.51h0.03c-0.27,0.29-0.75,0.21-1.01,0.51l0,0
		c-0.85,0.51-1.71,1.01-2.67,1.31l0.05-0.03c-0.16,0.48-0.67,0.37-1.04,0.53l0.05-0.03c-0.19,0.45-0.69,0.35-1.04,0.53l0.05-0.03
		c-0.21,0.43-0.72,0.32-1.04,0.53l0.05-0.03c-0.24,0.37-0.72,0.29-1.04,0.51l0.03-0.03c-0.24,0.35-0.72,0.27-1.04,0.51l0.03-0.03
		c-0.24,0.32-0.72,0.24-1.01,0.51h0.03c-0.27,0.32-0.75,0.21-1.01,0.51l0,0c-0.85,0.51-1.71,1.01-2.67,1.31l0.05-0.03
		c-0.16,0.48-0.67,0.4-1.04,0.53l0.05-0.03c-0.19,0.45-0.69,0.37-1.04,0.53l0.05-0.03c-0.21,0.43-0.69,0.32-1.04,0.53l0.05-0.03
		c-0.21,0.4-0.72,0.29-1.04,0.51l0.03-0.03c-0.24,0.37-0.72,0.27-1.04,0.51l0.03-0.03c-0.24,0.35-0.72,0.24-1.01,0.51h0.03
		c-0.27,0.32-0.75,0.21-1.01,0.51l0,0c-0.85,0.53-1.71,1.04-2.67,1.31l0.05-0.03c-0.16,0.51-0.67,0.4-1.04,0.53l0.05-0.03
		c-0.19,0.45-0.69,0.37-1.04,0.53l0.05-0.03c-0.21,0.43-0.69,0.35-1.04,0.53l0.05-0.03c-0.21,0.4-0.72,0.32-1.04,0.53l0.05-0.03
		c-0.24,0.37-0.72,0.29-1.04,0.51l0.03-0.03c-0.24,0.35-0.72,0.27-1.04,0.51h0.03c-0.27,0.32-0.75,0.24-1.01,0.51l0,0
		c-0.27,0.29-0.75,0.21-1.01,0.51l0,0c-0.85,0.51-1.71,0.99-2.67,1.34l0.05-0.03c-0.19,0.48-0.69,0.37-1.04,0.53l0.05-0.03
		c-0.19,0.43-0.69,0.35-1.04,0.53l0.05-0.03c-0.21,0.4-0.72,0.32-1.04,0.53l0.05-0.03c-0.24,0.37-0.72,0.29-1.04,0.51l0.03-0.03
		c-0.24,0.35-0.72,0.27-1.04,0.51h0.03c-0.27,0.32-0.75,0.24-1.01,0.51h0.03c-0.27,0.29-0.75,0.21-1.01,0.51l0,0
		c-0.85,0.51-1.71,1.01-2.67,1.31l0.05-0.03c-0.19,0.48-0.67,0.37-1.04,0.53l0.05-0.03c-0.19,0.45-0.69,0.35-1.04,0.53l0.05-0.03
		c-0.21,0.4-0.72,0.32-1.04,0.53l0.05-0.03c-0.24,0.37-0.72,0.29-1.04,0.51l0.03-0.03c-0.24,0.35-0.72,0.27-1.04,0.51l0.03-0.03
		c-0.24,0.32-0.75,0.24-1.01,0.51h0.03c-0.27,0.29-0.75,0.21-1.01,0.51l0,0c-0.85,0.51-1.71,1.01-2.67,1.31l0.05-0.03
		c-0.16,0.48-0.67,0.37-1.04,0.53l0.05-0.03c-0.19,0.45-0.69,0.35-1.04,0.53l0.05-0.03c-0.21,0.43-0.69,0.32-1.04,0.53l0.05-0.03
		c-0.21,0.4-0.72,0.29-1.04,0.51l0.03-0.03c-0.24,0.35-0.72,0.27-1.04,0.51l0.03-0.03c-0.24,0.35-0.72,0.24-1.01,0.51h0.03
		c-0.27,0.32-0.75,0.21-1.01,0.51l0,0c-0.91,0.67-2,0.99-3.04,1.44l0,0c-0.29,0.29-0.75,0.24-1.1,0.43l0.05-0.03
		c-0.37,0.53-1.12,0.11-1.52,0.53h0.03c-0.43,0.45-1.12,0.13-1.6,0.45l0.05-0.03c-0.72,0.72-1.79,0-2.56,0.53h0.05
		c-2.7,0.51-5.4,0.37-8.09,0.05l-0.16-0.13l-0.19,0.08c-0.67-0.4-1.52,0.05-2.19-0.43l-0.13-0.13l-0.16,0.05
		c-0.53-0.29-1.26,0.03-1.71-0.48l0.05,0.03c-0.43-0.37-1.2,0.05-1.55-0.53l0.05,0.03c-0.37-0.16-0.8-0.11-1.1-0.43l0.03,0.03
		c-0.21-0.13-0.45-0.21-0.72-0.21c-0.19-0.03-0.35-0.05-0.51-0.13c-0.24-0.11-0.51-0.19-0.72-0.32c-0.16-0.11-0.29-0.21-0.43-0.35
		c-0.19-0.19-0.51-0.21-0.64-0.48l0.03,0.03c-0.59-0.24-1.15-0.51-1.58-0.96l0.03,0.03c-0.53-0.29-1.18-0.45-1.5-1.07l0.03,0.03
		c-0.19,0-0.35-0.03-0.51-0.11c-0.08-0.03-0.16-0.08-0.24-0.11c-0.16-0.08-0.29-0.16-0.43-0.29c-0.05-0.05-0.13-0.11-0.19-0.16
		c-0.13-0.11-0.24-0.21-0.35-0.35c0,0-0.16-0.19-0.19-0.16c-0.13-0.11-0.24-0.21-0.35-0.35l-0.16-0.16
		c-0.13-0.11-0.24-0.21-0.35-0.32c0,0-0.16-0.16-0.19-0.16c-0.13-0.11-0.24-0.21-0.35-0.35c-0.05-0.05-0.13-0.11-0.19-0.16
		c-0.13-0.11-0.27-0.24-0.37-0.35c-0.05-0.05-0.13-0.13-0.19-0.19c-0.13-0.13-0.21-0.29-0.29-0.45c-0.05-0.19-0.13-0.35-0.19-0.53
		c-0.21-0.32-0.4-0.64-0.64-0.93l0,0c-0.19-0.16-0.37-0.32-0.45-0.59l0.03,0.05c-0.43-0.16-0.29-0.67-0.61-0.91l0,0
		c-0.16-0.19-0.4-0.32-0.4-0.61l0.05,0.05c-0.51-0.16-0.37-0.64-0.59-0.96l0.03,0.05c-0.43-0.21-0.35-0.67-0.53-0.99l0.03,0.05
		c-0.43-0.24-0.35-0.67-0.51-1.04l0.03,0.05c-0.67-0.29-0.19-1.04-0.61-1.42l0.03,0.03c-0.51-0.37-0.13-1.04-0.51-1.47l0.03,0.05
		c-0.64-0.53-0.05-1.39-0.51-1.95l0.03,0.05c-0.72-1.12,0.03-2.43-0.53-3.58c0.21-0.96,0.16-1.92,0-2.88
		c0.53-1.15-0.16-2.4,0.45-3.55l0.13-0.13l-0.08-0.16c0.48-0.8-0.13-1.79,0.48-2.56l0.13-0.11l-0.08-0.16
		c0.45-0.83-0.13-1.82,0.48-2.59l0.11-0.11l-0.08-0.11c0.45-0.83-0.13-1.84,0.48-2.64v0.03c0.61-0.88-0.19-2.03,0.53-2.88v0.03
		c0.53-0.75-0.11-1.71,0.45-2.46c0.16-0.11,0.16-0.21,0.05-0.35c0.51-0.77-0.11-1.76,0.45-2.54l0.13-0.13l-0.08-0.16
		c0.48-0.8-0.13-1.79,0.48-2.56l0.13-0.11l-0.08-0.16c0.45-0.83-0.13-1.82,0.48-2.59l0.11-0.11l-0.08-0.11
		c0.45-0.83-0.13-1.84,0.48-2.64v0.03c0.61-0.88-0.21-2.03,0.53-2.88v0.03c0.53-0.75-0.11-1.71,0.45-2.46
		c0.16-0.11,0.19-0.21,0.05-0.35c0.51-0.77-0.11-1.76,0.45-2.54l0.13-0.13l-0.08-0.16c0.48-0.8-0.13-1.79,0.48-2.56l0.13-0.11
		l-0.08-0.16c0.45-0.83-0.13-1.82,0.48-2.59l0.11-0.11L84,340.5c0.45-0.83-0.13-1.84,0.48-2.64v0.03c0.61-0.88-0.21-2.03,0.53-2.88
		v0.03c0.53-0.75-0.11-1.71,0.45-2.46l0.13-0.16l-0.08-0.19c0.51-0.8-0.11-1.76,0.45-2.54l0.13-0.13l-0.08-0.16
		c0.48-0.8-0.13-1.79,0.48-2.56l0.13-0.11l-0.08-0.13c0.45-0.83-0.13-1.82,0.48-2.62l0.11-0.11l-0.08-0.11
		c0.45-0.83-0.13-1.84,0.48-2.64v0.03c0.61-0.88-0.21-2.03,0.53-2.88l-0.03,0.03c0.53-0.75-0.11-1.71,0.45-2.46l0.13-0.16
		l-0.08-0.19c0.51-0.8-0.11-1.76,0.45-2.54l0.13-0.13l-0.08-0.16c0.48-0.8-0.13-1.79,0.48-2.56l0.11-0.11l-0.08-0.13
		c0.45-0.83-0.13-1.82,0.48-2.62l0.08-0.11l-0.08-0.11c0.45-0.83-0.13-1.84,0.51-2.64v0.03c0.61-0.88-0.21-2.03,0.53-2.88
		l-0.03,0.05c0.53-0.75-0.11-1.71,0.45-2.46l0.13-0.16l-0.08-0.19c0.51-0.8-0.11-1.76,0.45-2.54l0.13-0.13l-0.08-0.16
		c0.48-0.8-0.13-1.79,0.48-2.56l0.11-0.11l-0.08-0.13c0.45-0.83-0.13-1.82,0.48-2.62l0.08-0.11l-0.08-0.11
		c0.45-0.83-0.13-1.84,0.51-2.64v0.03c0.61-0.88-0.21-2.03,0.53-2.88l-0.03,0.05c0.51-0.75-0.11-1.71,0.45-2.46l0.13-0.16
		l-0.08-0.19c0.51-0.8-0.11-1.76,0.45-2.54l0.13-0.13l-0.08-0.16c0.48-0.8-0.13-1.79,0.48-2.56l0.11-0.11l-0.08-0.13
		c0.45-0.83-0.13-1.82,0.48-2.62l0.08-0.11l-0.08-0.11c0.45-0.83-0.13-1.84,0.51-2.64v0.03c0.61-0.88-0.21-2.03,0.53-2.88
		l-0.03,0.05c0.51-0.75-0.11-1.71,0.45-2.46c0.16-0.08,0.19-0.21,0.05-0.35c0.37-0.64-0.08-1.12-0.35-1.66
		c-0.11-0.19-0.21-0.37-0.29-0.56c-2.3-2.56-4.99-4.7-7.4-7.16l0.03,0.03c-0.35,0-0.53-0.16-0.56-0.51l0.03,0.03
		c-0.35,0-0.53-0.19-0.56-0.51l0.03,0.03c-0.35,0-0.51-0.19-0.56-0.51l0.05,0.03c-0.32-0.03-0.51-0.21-0.56-0.51l0.05,0.03
		c-0.32-0.03-0.51-0.21-0.56-0.51l0.05,0.03c-0.32-0.05-0.51-0.21-0.56-0.51l0.05,0.05c-0.32-0.05-0.48-0.24-0.56-0.51l0.05,0.03
		c-0.29-0.05-0.48-0.24-0.56-0.51l0.05,0.05c-0.29-0.08-0.48-0.24-0.56-0.51l0.05,0.03c-0.29-0.08-0.45-0.24-0.56-0.51l0.05,0.03
		c-0.27-0.08-0.45-0.27-0.56-0.51l0.03,0.03c-0.27-0.08-0.45-0.27-0.56-0.51l0.03,0.03c-0.27-0.11-0.43-0.27-0.56-0.51l0.03,0.03
		c-0.16-0.08-0.32-0.13-0.48-0.19c-0.08-0.03-0.16-0.08-0.24-0.11c-0.16-0.08-0.29-0.19-0.43-0.29c-0.05-0.05-0.13-0.11-0.19-0.16
		c-0.13-0.11-0.24-0.21-0.35-0.35c0,0-0.16-0.16-0.19-0.16c-0.13-0.11-0.24-0.21-0.35-0.32l-0.16-0.16
		c-0.13-0.11-0.24-0.21-0.35-0.32L80,247.55c-0.13-0.11-0.24-0.21-0.35-0.32l-0.16-0.16c-0.13-0.11-0.24-0.21-0.35-0.32
		c0,0-0.16-0.16-0.19-0.16c-0.13-0.11-0.24-0.21-0.35-0.32c-0.05-0.05-0.13-0.11-0.19-0.16c-0.13-0.11-0.27-0.24-0.37-0.35
		c-0.08-0.05-0.13-0.11-0.19-0.19c-0.13-0.11-0.27-0.24-0.43-0.37c-0.08-0.05-0.13-0.13-0.21-0.19c-0.16-0.13-0.29-0.27-0.43-0.43
		c-0.05-0.08-0.11-0.19-0.19-0.27c-2.35-2.43-4.97-4.65-7.37-7.05l0.05,0.05c-0.35,0-0.53-0.19-0.53-0.51l0.03,0.03
		c-0.35,0-0.53-0.19-0.56-0.51l0.05,0.03c-0.35-0.03-0.51-0.19-0.56-0.51l0.05,0.03c-0.32-0.03-0.51-0.21-0.56-0.51l0.05,0.03
		c-0.32-0.03-0.51-0.21-0.56-0.51l0.05,0.05c-0.32-0.05-0.48-0.21-0.56-0.51l0.05,0.05c-0.29-0.05-0.48-0.24-0.56-0.51l0.05,0.03
		c-0.29-0.08-0.48-0.24-0.56-0.51l0.05,0.03c-0.29-0.08-0.48-0.24-0.56-0.51l0.05,0.03c-0.27-0.08-0.45-0.27-0.56-0.51l0.03,0.03
		c-0.27-0.08-0.45-0.27-0.56-0.51l0.03,0.03c-0.27-0.08-0.45-0.27-0.56-0.51l0.03,0.03c-0.24-0.11-0.43-0.27-0.53-0.51l0.03,0.03
		c-0.16-0.08-0.32-0.13-0.48-0.19c-0.08-0.03-0.16-0.08-0.24-0.11c-0.16-0.08-0.29-0.19-0.4-0.29c-0.05-0.05-0.13-0.11-0.19-0.16
		c-0.13-0.11-0.24-0.21-0.35-0.35c0,0-0.16-0.16-0.19-0.16c-0.13-0.11-0.24-0.21-0.35-0.32l-0.16-0.16
		c-0.13-0.11-0.24-0.21-0.35-0.32l-0.16-0.16c-0.13-0.11-0.24-0.21-0.35-0.32c0,0-0.16-0.16-0.19-0.16
		c-0.13-0.11-0.24-0.21-0.35-0.35c-0.05-0.05-0.13-0.11-0.19-0.16c-0.13-0.11-0.27-0.24-0.37-0.35c-0.08-0.05-0.13-0.11-0.19-0.19
		c-0.13-0.11-0.27-0.24-0.43-0.37c-0.08-0.05-0.13-0.13-0.21-0.19c-0.16-0.13-0.29-0.27-0.43-0.43c-0.05-0.08-0.11-0.19-0.19-0.27
		c-2.35-2.43-4.97-4.65-7.35-7.05l0.03,0.03c-0.37,0-0.53-0.16-0.56-0.51l0.03,0.03c-0.35,0-0.53-0.19-0.53-0.51l0.03,0.03
		c-0.35,0-0.53-0.19-0.56-0.51l0.05,0.03c-0.32-0.03-0.51-0.21-0.56-0.51l0.05,0.03c-0.32-0.03-0.51-0.21-0.56-0.51l0.05,0.03
		c-0.32-0.05-0.51-0.21-0.56-0.51l0.05,0.05c-0.32-0.05-0.48-0.24-0.56-0.51l0.05,0.03c-0.29-0.05-0.48-0.24-0.56-0.51l0.05,0.05
		c-0.29-0.08-0.48-0.24-0.56-0.51l0.05,0.03c-0.29-0.08-0.45-0.24-0.56-0.51l0.05,0.03c-0.27-0.08-0.45-0.27-0.56-0.51l0.03,0.03
		c-0.27-0.08-0.45-0.27-0.56-0.51l0.03,0.03c-0.27-0.11-0.43-0.27-0.56-0.51l0.03,0.03c-0.16-0.08-0.32-0.13-0.48-0.19
		c-0.08-0.03-0.16-0.08-0.24-0.11c-0.16-0.08-0.29-0.19-0.43-0.29c-0.05-0.05-0.13-0.11-0.19-0.16c-0.13-0.11-0.24-0.21-0.35-0.35
		c0,0-0.16-0.16-0.19-0.16c-0.13-0.11-0.24-0.21-0.35-0.32l-0.16-0.16c-0.13-0.11-0.24-0.21-0.35-0.32l-0.16-0.16
		c-0.13-0.11-0.24-0.21-0.35-0.32l-0.16-0.16c-0.13-0.11-0.24-0.21-0.35-0.32c0,0-0.16-0.16-0.19-0.16
		c-0.13-0.11-0.24-0.21-0.35-0.32c-0.05-0.05-0.13-0.11-0.19-0.16c-0.13-0.11-0.27-0.24-0.37-0.35c-0.08-0.05-0.13-0.11-0.19-0.19
		c-0.13-0.11-0.27-0.24-0.43-0.37c-0.08-0.05-0.13-0.13-0.21-0.19c-0.16-0.13-0.29-0.27-0.43-0.43c-0.05-0.08-0.11-0.19-0.19-0.27
		c-2.35-2.43-4.97-4.65-7.37-7.05l0.05,0.05c-0.35,0-0.53-0.19-0.53-0.51l0.03,0.03c-0.35,0-0.53-0.19-0.56-0.51l0.03,0.03
		c-0.35-0.03-0.51-0.19-0.56-0.51l0.05,0.03c-0.32-0.03-0.51-0.21-0.56-0.51l0.05,0.03c-0.32-0.03-0.51-0.21-0.56-0.51l0.05,0.05
		c-0.32-0.05-0.48-0.21-0.56-0.51l0.05,0.05c-0.32-0.05-0.48-0.24-0.56-0.51l0.05,0.03c-0.29-0.05-0.48-0.24-0.56-0.51l0.05,0.05
		c-0.29-0.08-0.48-0.24-0.56-0.51l0.05,0.03c-0.29-0.08-0.45-0.24-0.56-0.51l0.05,0.03c-0.27-0.08-0.45-0.27-0.56-0.51l0.03,0.03
		c-0.27-0.08-0.45-0.27-0.56-0.51l0.03,0.03c-0.27-0.11-0.43-0.27-0.56-0.51l0.03,0.03c-0.16-0.08-0.32-0.13-0.48-0.19
		c-0.08-0.03-0.16-0.08-0.24-0.11c-0.16-0.08-0.29-0.19-0.4-0.29c-0.05-0.05-0.13-0.11-0.19-0.16c-0.13-0.11-0.24-0.21-0.35-0.35
		c0,0-0.16-0.16-0.19-0.16c-0.13-0.11-0.24-0.21-0.35-0.32l-0.16-0.16c-0.13-0.11-0.24-0.21-0.35-0.32l-0.16-0.16
		c-0.13-0.11-0.24-0.21-0.35-0.32c0,0-0.16-0.16-0.19-0.16c-0.13-0.11-0.24-0.21-0.35-0.35c-0.05-0.05-0.13-0.11-0.19-0.16
		c-0.13-0.11-0.27-0.24-0.37-0.35c-0.08-0.05-0.13-0.11-0.19-0.19c-0.13-0.11-0.27-0.24-0.43-0.37c-0.08-0.05-0.13-0.13-0.21-0.19
		c-0.16-0.13-0.29-0.27-0.43-0.43c-0.05-0.08-0.11-0.19-0.19-0.27c-2.54-2.59-5.29-4.97-7.88-7.51l0.03,0.03
		c-0.35,0-0.53-0.19-0.53-0.51l0.03,0.03c-0.35,0-0.53-0.19-0.56-0.51l0.05,0.03c-0.35-0.03-0.51-0.19-0.53-0.51l0.03,0.03
		c-0.35-0.03-0.53-0.19-0.53-0.53l0.03,0.03c-0.43-0.11-0.53-0.53-0.83-0.77c-0.13-0.13-0.27-0.24-0.45-0.35
		c-0.16-0.11-0.32-0.21-0.45-0.32c-0.08-0.05-0.13-0.13-0.19-0.19c-0.13-0.13-0.24-0.27-0.32-0.43c-0.08-0.16-0.13-0.32-0.16-0.48
		c0-0.27-0.08-0.51-0.27-0.69l0,0c-0.19-0.19-0.4-0.32-0.43-0.59l0.03,0.05c-0.29-0.08-0.35-0.35-0.48-0.53
		c-0.13-0.11-0.24-0.24-0.37-0.35c-0.13-0.21-0.27-0.43-0.4-0.64c-0.08-0.13-0.16-0.29-0.24-0.43c-0.11-0.21-0.19-0.45-0.27-0.69
		c-0.08-0.16-0.11-0.29-0.13-0.48c0-0.24-0.11-0.48-0.21-0.69l0.03,0.03c-0.56-0.35-0.08-1.04-0.56-1.42l0,0
		c-0.45-0.4-0.08-1.04-0.48-1.47v0.03c-0.59-0.56-0.03-1.39-0.51-1.95v0.05c-0.51-3.18-0.45-6.36-0.03-9.54l0.11-0.11l-0.05-0.11
		c0.4-0.67-0.13-1.55,0.56-2.14l-0.03,0.05c0.32-0.45-0.05-1.12,0.51-1.5l-0.03,0.05c0.4-0.4-0.11-1.15,0.59-1.44l-0.03,0.05
		c0.11-0.37,0.08-0.8,0.48-1.04l-0.03,0.05c0.21-0.32,0.13-0.77,0.53-0.99l-0.03,0.03c0.21-0.29,0.13-0.77,0.56-0.99L3.31,150
		c0.21-0.32,0.08-0.83,0.61-0.93l-0.03,0.05c-0.05-0.32,0.19-0.45,0.4-0.61v0.03c0.29-0.24,0.13-0.77,0.64-0.88l-0.05,0.05
		c-0.03-0.32,0.21-0.45,0.45-0.59l-0.03,0.03c0.4-0.75,0.91-1.39,1.66-1.84l-0.03,0.03c0-0.35,0.19-0.51,0.51-0.53l-0.03,0.03
		c0.03-0.32,0.21-0.48,0.53-0.51l-0.05,0.03c0.03-0.32,0.21-0.48,0.56-0.51l-0.05,0.03c0.35-0.61,1.04-0.88,1.5-1.39
		c0.13-0.13,0.29-0.27,0.45-0.4c0.19-0.08,0.37-0.16,0.56-0.21l-0.03,0.03c0.37-0.51,0.96-0.77,1.55-0.99l-0.03,0.03
		c0.11-0.27,0.4-0.29,0.59-0.45c0.11-0.11,0.24-0.24,0.37-0.35c0.21-0.13,0.45-0.24,0.67-0.37c0.16-0.08,0.29-0.16,0.45-0.21
		c0.24-0.11,0.48-0.16,0.72-0.27c0.16-0.05,0.32-0.11,0.51-0.13c0.27,0,0.51-0.11,0.72-0.21l-0.03,0.03
		c0.37-0.51,1.12-0.08,1.5-0.53l0,0c0.43-0.43,1.12-0.05,1.55-0.45h-0.03c0.59-0.53,1.47,0,2.08-0.48H21.5
		c0.99-0.67,2.19,0.05,3.18-0.48l0.19,0.08l0.16-0.13c0.99-0.59,2.19,0.08,3.18-0.43c0.13,0.11,0.27,0.11,0.37-0.05
		c0.96-0.56,2.14,0.11,3.1-0.43h-0.05c1.12-0.69,2.46,0.11,3.58-0.51h-0.03c1.04-0.59,2.24,0,3.31-0.48l0.11,0.08l0.11-0.08
		c1.01-0.61,2.24,0.03,3.31-0.45l0.13,0.08l0.11-0.11c1.01-0.61,2.24,0.03,3.26-0.45l0.16,0.08l0.13-0.11
		c1.01-0.59,2.22,0.05,3.23-0.45l0.16,0.08l0.13-0.13c1.01-0.59,2.19,0.05,3.21-0.45l0.19,0.08l0.16-0.13
		c0.99-0.59,2.19,0.08,3.21-0.43l0.19,0.08l0.16-0.13c0.99-0.56,2.16,0.08,3.18-0.43c0.13,0.11,0.27,0.11,0.37-0.05
		c0.96-0.56,2.14,0.11,3.1-0.43h-0.03c1.04-0.59,2.27,0,3.31-0.48l0.11,0.08l0.11-0.08c1.04-0.59,2.27,0,3.31-0.45l0.13,0.08
		l0.11-0.08c1.01-0.61,2.24,0.03,3.29-0.45l0.13,0.08l0.13-0.11c1.01-0.61,2.22,0.03,3.26-0.45l0.16,0.08l0.13-0.13
		c1.01-0.59,2.22,0.05,3.23-0.45l0.19,0.08l0.16-0.13c0.99-0.59,2.19,0.05,3.21-0.43l0.19,0.08l0.16-0.13
		c0.99-0.59,2.19,0.08,3.18-0.43c0.13,0.11,0.27,0.11,0.37-0.05c0.96-0.56,2.14,0.11,3.1-0.43h-0.05c1.12-0.69,2.46,0.11,3.58-0.51
		h-0.03c1.04-0.59,2.24,0,3.31-0.48l0.11,0.08l0.11-0.08c1.01-0.61,2.24,0.03,3.31-0.45l0.13,0.08l0.11-0.11
		c1.01-0.61,2.24,0.03,3.26-0.45l0.16,0.08l0.13-0.11c1.01-0.59,2.22,0.05,3.23-0.45l0.16,0.08l0.13-0.13
		c1.01-0.59,2.19,0.05,3.21-0.45l0.19,0.08l0.16-0.13c0.99-0.59,2.19,0.08,3.21-0.43l0.19,0.08l0.16-0.13
		c0.99-0.56,2.16,0.08,3.18-0.43c0.13,0.11,0.27,0.11,0.37-0.05c0.96-0.56,2.14,0.11,3.1-0.43h-0.03c1.04-0.59,2.27,0,3.31-0.48
		l0.11,0.08l0.11-0.08c1.04-0.59,2.24,0,3.31-0.45l0.13,0.08l0.11-0.11c1.01-0.61,2.24,0.03,3.29-0.45l0.16,0.08l0.13-0.11
		c1.01-0.61,2.22,0.03,3.26-0.45l0.16,0.08l0.13-0.13c1.01-0.59,2.22,0.05,3.23-0.45l0.19,0.08l0.16-0.13
		c0.99-0.59,2.19,0.05,3.21-0.43l0.19,0.08l0.16-0.13c0.96-0.59,2.14,0.08,3.13-0.43h-0.05c0.13-0.16,0.29-0.27,0.48-0.32
		c0.27-0.16,0.32-0.48,0.56-0.67l-0.03,0.03c0.24-0.29,0.16-0.75,0.51-0.99l-0.03,0.03c0.13-0.21,0.24-0.4,0.24-0.67
		c0.03-0.16,0.05-0.32,0.11-0.45c0.11-0.21,0.19-0.45,0.29-0.69c0.08-0.16,0.16-0.29,0.24-0.45c0.08-0.16,0.16-0.32,0.24-0.45
		c0.08-0.16,0.16-0.32,0.24-0.45c0.08-0.16,0.16-0.32,0.24-0.48c0.08-0.16,0.16-0.32,0.27-0.48c0.08-0.16,0.16-0.32,0.24-0.48
		c0.08-0.16,0.16-0.32,0.27-0.48c0.08-0.16,0.16-0.32,0.24-0.48c0.08-0.16,0.16-0.32,0.24-0.45c0.08-0.16,0.16-0.29,0.24-0.45
		c0.08-0.16,0.16-0.29,0.24-0.45c0.13-0.21,0.24-0.45,0.35-0.67c0.08-0.16,0.16-0.32,0.24-0.48c0.13-0.24,0.27-0.51,0.45-0.72
		c0.16-0.13,0.29-0.27,0.4-0.45c1.23-2.51,2.54-4.99,3.95-7.45l-0.03,0.05c0.11-0.37,0.03-0.83,0.53-0.99l-0.03,0.05
		c0.11-0.37,0.03-0.83,0.53-1.01l-0.03,0.05c0.13-0.37,0.03-0.83,0.53-1.01l-0.03,0.05c0.13-0.35,0.05-0.83,0.53-0.99l-0.03,0.05
		c0.13-0.35,0.05-0.8,0.53-1.01l-0.03,0.05c0.16-0.35,0.08-0.8,0.53-0.99l-0.03,0.05c0.16-0.35,0.08-0.8,0.53-1.01l-0.03,0.05
		c0.16-0.35,0.08-0.8,0.53-1.01l-0.03,0.05c0.19-0.35,0.08-0.8,0.53-1.01l-0.03,0.05c0.19-0.35,0.11-0.8,0.53-1.01l-0.03,0.05
		c0.19-0.32,0.11-0.77,0.53-0.99l-0.03,0.05c0.19-0.32,0.11-0.77,0.53-1.01l-0.03,0.05c0.21-0.32,0.13-0.77,0.53-0.99l-0.03,0.05
		c0.21-0.32,0.13-0.77,0.53-0.99l-0.03,0.03c0.21-0.32,0.13-0.77,0.53-0.99l-0.03,0.03c0.21-0.32,0.13-0.77,0.53-0.99l-0.03,0.03
		c0.21-0.32,0.13-0.75,0.51-0.99l-0.03,0.03c0.24-0.29,0.16-0.75,0.53-0.99l-0.03,0.03c0.24-0.29,0.16-0.75,0.51-0.99l-0.03,0.03
		c0.24-0.29,0.16-0.75,0.51-0.99l-0.03,0.03c0.24-0.29,0.16-0.75,0.51-0.99l-0.03,0.03c0.13-0.21,0.24-0.43,0.24-0.67
		c0.03-0.16,0.05-0.32,0.11-0.45c0.11-0.21,0.19-0.45,0.29-0.69c0.08-0.16,0.16-0.29,0.24-0.45c0.08-0.16,0.16-0.32,0.24-0.45
		c0.08-0.16,0.16-0.32,0.24-0.45c0.08-0.16,0.16-0.32,0.24-0.48c0.08-0.16,0.16-0.32,0.27-0.48c0.08-0.16,0.16-0.32,0.24-0.48
		c0.08-0.16,0.16-0.32,0.27-0.48c0.08-0.16,0.16-0.32,0.24-0.48c0.08-0.16,0.16-0.32,0.24-0.45c0.08-0.16,0.16-0.29,0.24-0.45
		c0.08-0.16,0.16-0.29,0.24-0.45c0.13-0.21,0.24-0.45,0.35-0.67c0.08-0.16,0.16-0.32,0.24-0.48c0.13-0.24,0.27-0.51,0.45-0.72
		c0.16-0.13,0.29-0.27,0.4-0.45c1.23-2.51,2.54-4.99,3.95-7.45l-0.03,0.05c0.11-0.37,0.03-0.83,0.53-0.99l-0.03,0.05
		c0.11-0.37,0.03-0.83,0.53-1.01l-0.03,0.05c0.13-0.37,0.03-0.83,0.53-1.01l-0.03,0.05c0.13-0.35,0.05-0.83,0.53-0.99l-0.03,0.05
		c0.13-0.35,0.05-0.8,0.53-1.01l-0.03,0.05c0.16-0.35,0.08-0.8,0.53-0.99l-0.03,0.05c0.16-0.35,0.08-0.8,0.53-1.01l-0.63,0.19
		c0.16-0.35,0.08-0.8,0.53-1.01l-0.03,0.05c0.19-0.35,0.08-0.8,0.53-1.01l-0.03,0.05c0.19-0.35,0.11-0.8,0.53-1.01l-0.03,0.05
		c0.19-0.32,0.11-0.77,0.53-0.99l-0.03,0.05c0.19-0.32,0.11-0.77,0.53-1.01l-0.03,0.05c0.21-0.32,0.13-0.77,0.53-0.99l-0.03,0.05
		c0.21-0.32,0.13-0.77,0.53-0.99l-0.03,0.05c0.21-0.32,0.13-0.77,0.53-0.99l-0.03,0.03c0.21-0.32,0.13-0.77,0.53-0.99l-0.03,0.03
		c0.21-0.32,0.13-0.75,0.51-0.99l-0.03,0.03c0.24-0.29,0.16-0.75,0.53-0.99l-0.03,0.03c0.24-0.29,0.16-0.75,0.51-0.99l-0.03,0.03
		c0.24-0.29,0.16-0.75,0.51-0.99l-0.03,0.03c0.24-0.29,0.16-0.75,0.51-0.99l-0.03,0.03c0.13-0.21,0.24-0.43,0.24-0.67
		c0.03-0.16,0.05-0.32,0.11-0.45c0.11-0.21,0.19-0.45,0.29-0.69c0.08-0.16,0.16-0.29,0.24-0.45c0.08-0.16,0.16-0.32,0.24-0.45
		c0.08-0.16,0.16-0.32,0.24-0.45c0.08-0.16,0.16-0.32,0.24-0.48c0.08-0.16,0.16-0.32,0.27-0.48c0.08-0.16,0.16-0.32,0.24-0.48
		s0.16-0.32,0.27-0.48c0.08-0.16,0.16-0.32,0.24-0.48c0.08-0.16,0.16-0.32,0.24-0.45c0.08-0.16,0.16-0.29,0.24-0.45
		c0.08-0.16,0.16-0.29,0.24-0.45c0.13-0.21,0.24-0.45,0.35-0.67c0.08-0.16,0.16-0.32,0.24-0.48c0.13-0.24,0.27-0.51,0.45-0.72
		c0.16-0.13,0.29-0.27,0.4-0.45c1.23-2.51,2.54-4.99,3.95-7.45l-0.03,0.05c0.11-0.37,0.03-0.83,0.53-0.99l-0.03,0.05
		c0.11-0.37,0.03-0.83,0.53-0.99l-0.03,0.05c0.11-0.37,0.03-0.83,0.53-1.01l-0.03,0.05c0.13-0.35,0.05-0.83,0.53-0.99l-0.03,0.05
		c0.13-0.35,0.05-0.8,0.53-1.01l-0.03,0.05c0.16-0.35,0.08-0.8,0.53-0.99l-0.03,0.05c0.16-0.35,0.08-0.8,0.53-1.01l-0.03,0.05
		c0.16-0.35,0.08-0.8,0.53-1.01l-0.03,0.05c0.19-0.35,0.08-0.8,0.53-1.01l-0.03,0.05c0.19-0.35,0.11-0.8,0.53-1.01l-0.03,0.05
		c0.19-0.32,0.11-0.77,0.53-0.99l-0.03,0.05c0.19-0.32,0.11-0.77,0.53-1.01l-0.03,0.05c0.21-0.32,0.13-0.77,0.53-0.99l-0.03,0.05
		c0.21-0.32,0.13-0.77,0.53-0.99l-0.03,0.05c0.21-0.32,0.13-0.77,0.53-0.99l-0.03,0.03c0.21-0.32,0.13-0.77,0.56-0.96l-0.03,0.05
		c0.21-0.56,0.56-1.07,0.99-1.52l-0.03,0.03c0.35-0.48,0.56-1.04,1.07-1.44l-0.03,0.05c0.08-0.24,0.29-0.37,0.45-0.56l0,0
		c0.53-0.61,0.93-1.36,1.68-1.82l-0.05,0.03c0-0.32,0.19-0.48,0.53-0.53l-0.05,0.03c0.03-0.32,0.21-0.51,0.56-0.51l-0.03,0.03
		c0.13-0.4,0.56-0.51,0.83-0.8c0.13-0.13,0.27-0.27,0.37-0.43c0.11-0.16,0.24-0.32,0.37-0.45c0.08-0.08,0.13-0.13,0.21-0.21
		c0.16-0.13,0.32-0.24,0.51-0.32c0.19-0.08,0.4-0.13,0.59-0.21c0.37-0.19,0.72-0.45,1.15-0.56l-0.03,0.03
		c0.11-0.27,0.37-0.32,0.59-0.45c0.13-0.11,0.24-0.24,0.37-0.35c0.21-0.13,0.45-0.24,0.67-0.37c0.16-0.08,0.29-0.16,0.45-0.21
		c0.24-0.11,0.48-0.16,0.72-0.27c0.16-0.05,0.32-0.11,0.51-0.13c0.27,0,0.51-0.11,0.72-0.21l-0.03,0.03
		c0.37-0.53,1.12-0.08,1.5-0.53l0,0c0.43-0.43,1.12-0.05,1.55-0.45h-0.03c0.59-0.53,1.47,0,2.08-0.48h-0.03
		c1.2-0.64,2.56,0.03,3.79-0.48c1.04,0.16,2.06,0.16,3.1,0c1.2,0.51,2.56-0.16,3.74,0.43l0.13,0.13l0.16-0.08
		c0.67,0.4,1.58-0.13,2.19,0.51l-0.05-0.03c0.48,0.32,1.18-0.05,1.58,0.48l-0.05-0.03c0.43,0.37,1.23-0.11,1.52,0.59l-0.05-0.03
		c0.4,0.08,0.85,0.03,1.1,0.45l-0.05-0.03c0.35,0.16,0.85,0.08,1.07,0.51l-0.05-0.03c0.35,0.19,0.85,0.05,1.01,0.56l-0.05-0.03
		c0.29-0.03,0.45,0.21,0.64,0.37l0,0c0.24,0.29,0.77,0.16,0.96,0.59l-0.05-0.03c0.27,0.05,0.43,0.24,0.61,0.4l0,0
		c0.24,0.29,0.83,0.16,0.91,0.64l-0.03-0.03c0.19-0.03,0.35,0,0.51,0.08c0.08,0.03,0.16,0.08,0.24,0.11
		c0.16,0.08,0.29,0.16,0.43,0.29c0.05,0.05,0.13,0.11,0.19,0.16c0.13,0.11,0.24,0.21,0.35,0.35c0.05,0.05,0.11,0.11,0.19,0.16
		c0.13,0.11,0.24,0.21,0.35,0.35l0.16,0.16c0.13,0.11,0.24,0.21,0.35,0.32c0,0,0.16,0.16,0.19,0.16c0.13,0.11,0.24,0.21,0.35,0.35
		c0.05,0.05,0.13,0.11,0.19,0.16c0.13,0.11,0.27,0.24,0.37,0.35c0.05,0.05,0.13,0.13,0.19,0.19c0.13,0.13,0.21,0.29,0.29,0.45
		c0.05,0.19,0.13,0.35,0.19,0.53c0.21,0.32,0.4,0.64,0.64,0.96l0,0c0.19,0.16,0.4,0.32,0.43,0.59l-0.05-0.05
		c0.43,0.16,0.32,0.67,0.61,0.91l0,0c0.19,0.19,0.4,0.32,0.4,0.61l-0.05-0.05c0.51,0.16,0.37,0.64,0.59,0.96l-0.03-0.05
		c0.43,0.21,0.35,0.67,0.53,0.99l-0.03-0.05c0.4,0.21,0.32,0.67,0.53,0.99l-0.03-0.05c0.4,0.24,0.32,0.67,0.53,1.01l-0.03-0.05
		c0.43,0.21,0.35,0.67,0.53,0.99l-0.03-0.05c0.43,0.21,0.35,0.67,0.53,1.01l-0.03-0.05c0.43,0.21,0.35,0.67,0.53,1.01l-0.03-0.05
		c0.45,0.21,0.37,0.67,0.53,1.01l-0.03-0.05c0.45,0.21,0.37,0.67,0.53,1.01l-0.03-0.05c0.48,0.19,0.37,0.67,0.53,0.99L255,21.96
		c0.48,0.19,0.4,0.67,0.53,1.01l-0.03-0.05c0.48,0.19,0.4,0.64,0.53,1.01l-0.03-0.05c0.48,0.19,0.4,0.64,0.53,1.01l-0.03-0.05
		c0.51,0.19,0.4,0.64,0.53,1.01l-0.03-0.05c0.51,0.16,0.43,0.64,0.53,0.99l-0.03-0.05c1.39,2.43,2.67,4.89,3.93,7.37
		c0.08,0.19,0.21,0.35,0.37,0.45c0.21,0.19,0.35,0.43,0.48,0.69c0.11,0.13,0.19,0.29,0.24,0.45c0.11,0.21,0.21,0.45,0.32,0.67
		c0.08,0.13,0.16,0.27,0.24,0.43c0.11,0.21,0.21,0.43,0.35,0.64c0.11,0.13,0.16,0.29,0.24,0.43c0.08,0.16,0.16,0.29,0.24,0.45
		c0.08,0.16,0.16,0.29,0.24,0.45c0.08,0.16,0.16,0.32,0.24,0.45c0.08,0.16,0.16,0.29,0.24,0.45c0.08,0.16,0.16,0.32,0.24,0.45
		c0.08,0.13,0.16,0.29,0.24,0.45c0.08,0.13,0.16,0.29,0.21,0.45c0.08,0.13,0.16,0.29,0.21,0.43c0.11,0.21,0.21,0.43,0.32,0.64
		c0.08,0.13,0.16,0.27,0.24,0.43c0.11,0.21,0.19,0.45,0.27,0.67c0.05,0.16,0.11,0.29,0.13,0.45c0,0.24,0.11,0.45,0.24,0.67
		l-0.03-0.03c0.35,0.24,0.27,0.69,0.53,0.99l-0.03-0.03c0.35,0.24,0.27,0.69,0.51,0.99l-0.03-0.03c0.37,0.24,0.29,0.69,0.53,0.99
		l-0.03-0.03c0.37,0.24,0.29,0.69,0.51,0.99l-0.03-0.03c0.37,0.24,0.29,0.69,0.53,0.99l-0.03-0.03c0.4,0.24,0.32,0.69,0.53,0.99
		l-0.03-0.03c0.4,0.24,0.32,0.69,0.53,1.01l-0.03-0.05c0.4,0.21,0.32,0.67,0.53,0.99l-0.03-0.05c0.4,0.21,0.32,0.67,0.53,1.01
		l-0.03-0.05c0.43,0.21,0.35,0.67,0.53,0.99l-0.03-0.05c0.43,0.21,0.35,0.67,0.53,1.01l-0.03-0.05c0.43,0.21,0.35,0.67,0.53,1.01
		l-0.03-0.05c0.45,0.21,0.37,0.67,0.53,1.01l-0.03-0.05c0.45,0.21,0.37,0.67,0.53,1.01l-0.03-0.05c0.48,0.19,0.37,0.67,0.53,1.01
		l-0.03-0.05c0.48,0.19,0.37,0.67,0.53,1.01l-0.03-0.05c0.48,0.19,0.4,0.64,0.53,1.01l-0.03-0.05c0.48,0.19,0.4,0.64,0.53,0.99
		l-0.03-0.05c0.51,0.19,0.4,0.64,0.53,1.01l-0.03-0.05c0.51,0.16,0.43,0.64,0.53,0.99l-0.03-0.05c1.39,2.43,2.67,4.89,3.93,7.37
		c0.08,0.19,0.21,0.35,0.37,0.45c0.21,0.19,0.35,0.43,0.48,0.69c0.11,0.13,0.19,0.29,0.24,0.45c0.11,0.21,0.21,0.45,0.32,0.67
		c0.08,0.13,0.16,0.27,0.24,0.43c0.11,0.21,0.21,0.43,0.35,0.64c0.11,0.13,0.16,0.29,0.24,0.43c0.08,0.16,0.16,0.29,0.24,0.45
		c0.08,0.16,0.16,0.29,0.24,0.45c0.08,0.16,0.16,0.32,0.24,0.45c0.11,0.16,0.16,0.29,0.24,0.45c0.08,0.16,0.16,0.32,0.24,0.45
		c0.08,0.13,0.16,0.29,0.24,0.45c0.08,0.13,0.16,0.29,0.21,0.45c0.08,0.13,0.16,0.29,0.21,0.43c0.11,0.21,0.21,0.43,0.32,0.64
		c0.08,0.13,0.16,0.27,0.24,0.43c0.11,0.21,0.19,0.45,0.27,0.67c0.05,0.16,0.11,0.29,0.13,0.45c0,0.24,0.11,0.45,0.24,0.67
		l-0.03-0.03c0.35,0.24,0.27,0.69,0.53,0.99l-0.03-0.03c0.35,0.24,0.27,0.69,0.51,0.99l-0.03-0.03c0.37,0.24,0.29,0.69,0.53,0.99
		l-0.03-0.03c0.37,0.24,0.29,0.69,0.51,0.99l-0.03-0.03c0.37,0.24,0.29,0.69,0.53,0.99l-0.03-0.03c0.4,0.24,0.32,0.69,0.53,0.99
		l-0.03-0.03c0.4,0.24,0.32,0.69,0.53,1.01l-0.03-0.05c0.4,0.21,0.32,0.67,0.53,0.99l-0.03-0.05c0.4,0.24,0.32,0.67,0.53,1.01
		l-0.03-0.05c0.43,0.21,0.35,0.67,0.53,0.99l-0.03-0.05c0.43,0.21,0.35,0.67,0.53,1.01l-0.03-0.05c0.43,0.21,0.35,0.67,0.53,1.01
		l-0.03-0.05c0.45,0.21,0.37,0.67,0.53,0.99l-0.03-0.05c0.45,0.21,0.37,0.67,0.53,1.01l-0.03-0.05c0.48,0.19,0.37,0.67,0.53,1.01
		l-0.03-0.05c0.48,0.19,0.37,0.67,0.53,1.01l-0.03-0.05c0.48,0.19,0.4,0.64,0.53,1.01l-0.03-0.05c0.48,0.19,0.4,0.64,0.53,0.99
		l-0.03-0.05c0.51,0.19,0.4,0.64,0.53,1.01l-0.03-0.05c0.51,0.16,0.43,0.64,0.53,0.99l-0.03-0.05c1.52,2.62,2.91,5.32,4.22,8.04l0,0
		c0.29,0.27,0.21,0.69,0.51,0.96l0,0c0.29,0.27,0.21,0.69,0.51,0.96l0,0c0.29,0.27,0.21,0.69,0.51,0.96l0,0
		c0.32,0.27,0.21,0.69,0.51,0.96l0,0c0.32,0.27,0.24,0.69,0.51,0.99v-0.03c0.32,0.24,0.24,0.69,0.51,0.96v-0.03
		c0.32,0.27,0.24,0.69,0.51,0.99v-0.03c0.32,0.24,0.24,0.69,0.51,0.99v-0.03c0.35,0.24,0.27,0.69,0.51,0.99v-0.03
		c0.35,0.24,0.27,0.69,0.51,0.99l-0.03-0.03c0.35,0.24,0.27,0.69,0.53,0.99l-0.03-0.03c0.35,0.24,0.27,0.69,0.51,0.99l-0.03-0.03
		c0.21,0.11,0.4,0.29,0.56,0.45l0.11,0.11l0.16-0.08c1.04,0.48,2.27-0.16,3.29,0.45l0.11,0.08l0.11-0.08
		c1.04,0.45,2.27-0.13,3.31,0.48h-0.03c1.12,0.59,2.48-0.21,3.58,0.51h-0.03c0.96,0.53,2.14-0.13,3.1,0.43
		c0.11,0.13,0.24,0.16,0.37,0.05c1.01,0.51,2.19-0.13,3.18,0.43l0.16,0.13l0.19-0.08c1.01,0.51,2.19-0.13,3.21,0.45l0.16,0.13
		l0.19-0.08c1.01,0.51,2.22-0.16,3.23,0.45l0.13,0.13l0.16-0.08c1.01,0.48,2.24-0.16,3.23,0.45l0.13,0.11l0.16-0.08
		c1.04,0.48,2.27-0.16,3.29,0.45l0.11,0.11l0.13-0.08c1.07,0.45,2.27-0.13,3.31,0.45l0.11,0.08l0.11-0.08
		c1.07,0.45,2.27-0.13,3.31,0.48h-0.03c0.96,0.53,2.14-0.13,3.1,0.43c0.11,0.13,0.24,0.16,0.37,0.05c0.99,0.53,2.19-0.13,3.18,0.43
		c0.11,0.13,0.21,0.16,0.37,0.05c1.01,0.51,2.19-0.13,3.18,0.43l0.16,0.13l0.19-0.08c1.01,0.51,2.22-0.16,3.21,0.45l0.13,0.13
		l0.19-0.08c1.01,0.48,2.22-0.16,3.23,0.45l0.13,0.11l0.16-0.08c1.04,0.48,2.24-0.16,3.26,0.45l0.11,0.11l0.13-0.08
		c1.04,0.48,2.27-0.16,3.29,0.45l0.11,0.08l0.11-0.08c1.04,0.45,2.27-0.13,3.31,0.48h-0.03c1.12,0.59,2.48-0.21,3.58,0.51h-0.03
		c0.96,0.53,2.14-0.13,3.1,0.43c0.11,0.13,0.24,0.16,0.37,0.05c1.01,0.51,2.19-0.13,3.18,0.43l0.16,0.13l0.19-0.08
		c1.01,0.51,2.19-0.13,3.21,0.45l0.16,0.13l0.19-0.08c1.01,0.51,2.22-0.16,3.23,0.45l0.13,0.13l0.16-0.08
		c1.02,0.48,2.24-0.16,3.23,0.45l0.13,0.11l0.16-0.08c1.04,0.48,2.27-0.16,3.29,0.45l0.11,0.11l0.13-0.08
		c1.07,0.45,2.27-0.13,3.31,0.45l0.11,0.08l0.11-0.08c1.07,0.45,2.27-0.13,3.31,0.48h-0.03c1.12,0.59,2.48-0.19,3.58,0.51h-0.05
		c0.96,0.53,2.14-0.13,3.1,0.43c0.11,0.13,0.21,0.16,0.37,0.05c1.01,0.51,2.19-0.13,3.18,0.43l0.16,0.13l0.19-0.08
		c1.01,0.51,2.22-0.16,3.21,0.45l0.13,0.13l0.19-0.08c1.01,0.48,2.22-0.16,3.23,0.45l0.13,0.11l0.16-0.08
		c1.04,0.48,2.24-0.16,3.26,0.45l0.11,0.11l0.13-0.08c1.04,0.48,2.27-0.16,3.29,0.45c0.4,0.11,0.77,0.29,1.2,0.35
		c7.67,0.93,13.84,4.33,18.46,10.18c0.13,0.19,0.35,0.32,0.53,0.48c0.51,0.4,0.83,0.91,1.01,1.52l-0.03-0.05
		c0.48,0.16,0.37,0.64,0.59,0.96l-0.03-0.05c0.4,0.21,0.32,0.67,0.53,0.99l-0.03-0.03c0.4,0.24,0.32,0.69,0.51,1.01l-0.03-0.05
		c0.64,0.29,0.13,1.04,0.61,1.42v-0.03c0.48,0.37,0.08,1.04,0.51,1.44v-0.03c0.45,0.45,0.16,1.12,0.45,1.6l-0.08,0.16l0.13,0.13
		c0.56,0.77-0.05,1.74,0.48,2.48c-0.13,0.13-0.11,0.27,0.03,0.37c0.4,1.92,0.43,3.82,0,5.74l-0.13,0.16l0.08,0.19
		c-0.51,0.77,0.13,1.76-0.48,2.51v-0.03c-0.53,0.53,0.13,1.42-0.56,1.92l0.03-0.05c-0.37,0.43,0.08,1.12-0.56,1.47l0.03-0.05
		c-0.16,0.35-0.11,0.77-0.45,1.04v-0.03c-0.27,0.29-0.19,0.72-0.48,0.99l0,0c-0.29,0.27-0.19,0.72-0.53,0.96v-0.03
		c-0.27,0.27-0.16,0.75-0.59,0.93l0.03-0.03c-0.27,0.53-0.56,1.07-1.01,1.47l0.03-0.03c-0.32,0.51-0.51,1.1-1.12,1.39l0.05-0.05
		c0,0.29-0.21,0.45-0.48,0.56l0.03-0.05c-0.08,0.24-0.27,0.4-0.51,0.53l0.03-0.03c-0.13,0.21-0.32,0.37-0.51,0.51l0.03-0.03
		c-0.16,0.19-0.32,0.35-0.51,0.51l0,0c-0.16,0.19-0.32,0.35-0.51,0.48l0,0c-0.16,0.19-0.32,0.35-0.51,0.48l0,0
		c-0.16,0.19-0.32,0.35-0.53,0.48l0.03-0.03c-0.16,0.19-0.32,0.35-0.53,0.48l0.03-0.03c-0.13,0.19-0.32,0.37-0.53,0.51l0.03-0.03
		c-0.13,0.21-0.32,0.37-0.53,0.48l0.03-0.03c-0.13,0.21-0.32,0.37-0.53,0.51l0.03-0.03c-0.13,0.21-0.32,0.37-0.53,0.51l0.03-0.03
		c-0.13,0.21-0.29,0.4-0.56,0.51l0.03-0.03c-0.11,0.24-0.29,0.4-0.53,0.51l0.03-0.03c-0.11,0.24-0.29,0.4-0.56,0.51l0.03-0.03
		c-0.11,0.24-0.29,0.43-0.56,0.51l0.03-0.03c-0.11,0.27-0.27,0.43-0.56,0.51l0.05-0.03c-0.08,0.27-0.27,0.43-0.56,0.51l0.05-0.05
		c-0.08,0.27-0.27,0.45-0.56,0.51l0.05-0.03c-0.08,0.27-0.27,0.45-0.56,0.51l0.05-0.05c-0.05,0.29-0.24,0.45-0.56,0.51l0.05-0.05
		c-0.05,0.29-0.24,0.48-0.56,0.51l0.05-0.03c-0.05,0.32-0.21,0.48-0.56,0.51l0.05-0.03c-0.03,0.32-0.21,0.48-0.56,0.51l0.03-0.03
		c-0.03,0.32-0.21,0.51-0.56,0.51l0.03-0.03c0,0.32-0.19,0.51-0.53,0.51l0.03-0.03c-2.64,2.46-5.13,5.07-7.99,7.32l0,0
		c-0.19,0.16-0.35,0.32-0.51,0.48l0,0c-0.19,0.16-0.35,0.32-0.51,0.48l0,0c-0.16,0.16-0.35,0.32-0.53,0.48l0,0
		c-0.16,0.19-0.32,0.35-0.51,0.48l0,0c-0.16,0.19-0.32,0.35-0.53,0.48l0.03-0.03c-0.16,0.19-0.32,0.35-0.53,0.48l0.03-0.03
		c-0.13,0.19-0.32,0.37-0.53,0.48l0.03-0.03c-0.13,0.21-0.32,0.37-0.53,0.51l0.03-0.03c-0.13,0.21-0.32,0.37-0.53,0.51l0.03-0.03
		c-0.13,0.21-0.32,0.4-0.56,0.51l0.03-0.03c-0.11,0.24-0.29,0.4-0.53,0.51l0.03-0.03c-0.11,0.24-0.29,0.4-0.56,0.51l0.03-0.03
		c-0.11,0.24-0.29,0.43-0.56,0.51l0.03-0.03c-0.11,0.24-0.27,0.43-0.56,0.51l0.05-0.03c-0.11,0.27-0.27,0.43-0.56,0.51l0.05-0.03
		c-0.08,0.27-0.27,0.45-0.56,0.51l0.05-0.05c-0.08,0.27-0.27,0.45-0.56,0.51l0.05-0.03c-0.08,0.29-0.24,0.45-0.56,0.51l0.05-0.05
		c-0.05,0.29-0.24,0.45-0.56,0.51l0.05-0.03c-0.05,0.29-0.24,0.48-0.56,0.51l0.05-0.03c-0.03,0.32-0.21,0.48-0.56,0.51l0.05-0.03
		c-0.03,0.32-0.21,0.48-0.56,0.51l0.03-0.03c-0.03,0.32-0.19,0.51-0.56,0.51l0.03-0.03c0,0.32-0.19,0.51-0.56,0.51l0.03-0.03
		c-2.64,2.46-5.13,5.07-7.99,7.32l0,0c-0.19,0.16-0.35,0.32-0.51,0.48l0,0c-0.19,0.16-0.35,0.32-0.51,0.48l0,0
		c-0.16,0.16-0.35,0.32-0.53,0.48l0,0c-0.16,0.19-0.32,0.35-0.53,0.48l0,0c-0.16,0.19-0.32,0.35-0.53,0.48l0.03-0.03
		c-0.13,0.19-0.32,0.37-0.53,0.51l0.03-0.03c-0.13,0.19-0.32,0.37-0.53,0.48l0.03-0.03c-0.13,0.21-0.32,0.37-0.53,0.51l0.03-0.03
		c-0.13,0.21-0.32,0.37-0.53,0.51l0.03-0.03c-0.13,0.21-0.29,0.4-0.56,0.51l0.03-0.03c-0.11,0.24-0.29,0.4-0.53,0.51l0.03-0.03
		c-0.11,0.24-0.29,0.4-0.56,0.51l0.03-0.03c-0.11,0.24-0.29,0.43-0.56,0.51l0.03-0.03c-0.11,0.24-0.27,0.43-0.56,0.51l0.05-0.03
		c-0.08,0.27-0.27,0.43-0.56,0.51l0.05-0.03c-0.08,0.27-0.27,0.45-0.56,0.51l0.05-0.05c-0.08,0.27-0.27,0.45-0.56,0.51l0.05-0.03
		c-0.05,0.29-0.24,0.45-0.56,0.51l0.05-0.05c-0.05,0.29-0.24,0.48-0.56,0.51l0.05-0.03c-0.05,0.29-0.21,0.48-0.56,0.51l0.05-0.03
		c-0.03,0.32-0.21,0.48-0.56,0.51l0.05-0.03c-0.03,0.32-0.21,0.51-0.56,0.51l0.03-0.03c0,0.32-0.19,0.51-0.53,0.51l0.03-0.03
		c-2.83,2.62-5.45,5.4-8.49,7.8l0,0c-0.19,0.16-0.35,0.32-0.51,0.48l0,0c-0.16,0.16-0.35,0.32-0.53,0.48l0,0
		c-0.16,0.16-0.32,0.35-0.51,0.48l0,0c-0.16,0.19-0.32,0.35-0.53,0.48l0.03-0.03c-0.16,0.19-0.32,0.35-0.53,0.48l0.03-0.03
		c-0.13,0.19-0.32,0.37-0.53,0.51l0.03-0.03c-0.13,0.21-0.32,0.37-0.53,0.48l0.03-0.03c-0.13,0.21-0.32,0.37-0.53,0.51l0.03-0.03
		c-0.13,0.21-0.32,0.4-0.56,0.51l0.03-0.03c-0.11,0.24-0.29,0.4-0.53,0.51l0.03-0.03c-0.11,0.24-0.29,0.4-0.56,0.51l0.03-0.03
		c-0.11,0.24-0.29,0.43-0.56,0.51l0.03-0.03c-0.11,0.24-0.29,0.43-0.56,0.51l0.05-0.03c-0.11,0.27-0.27,0.43-0.56,0.51l0.05-0.03
		c-0.08,0.27-0.27,0.45-0.56,0.51l0.05-0.05c-0.08,0.27-0.27,0.45-0.56,0.51l0.05-0.03c-0.08,0.29-0.24,0.45-0.56,0.51l0.05-0.05
		c-0.05,0.29-0.24,0.45-0.56,0.51l0.05-0.03c-0.05,0.29-0.24,0.48-0.56,0.51l0.05-0.03c-0.03,0.32-0.21,0.48-0.56,0.51l0.05-0.03
		c-0.05,0.32-0.21,0.48-0.56,0.51l0.03-0.03c-0.03,0.32-0.19,0.51-0.56,0.51l0.03-0.03c0,0.32-0.19,0.51-0.53,0.51l0.03-0.03
		c-2.64,2.46-5.13,5.07-7.99,7.32l0,0c-0.19,0.16-0.35,0.32-0.51,0.48l0,0c-0.19,0.16-0.35,0.32-0.51,0.48l0,0
		c-0.16,0.16-0.35,0.32-0.53,0.48l0,0c-0.16,0.19-0.32,0.35-0.53,0.48l0,0c-0.16,0.19-0.32,0.35-0.53,0.48l0.03-0.03
		c-0.13,0.19-0.32,0.37-0.53,0.51l0.03-0.03c-0.13,0.19-0.32,0.37-0.53,0.48l0.03-0.03c-0.13,0.21-0.32,0.37-0.53,0.51l0.03-0.03
		c-0.13,0.21-0.32,0.37-0.53,0.51l0.03-0.03c-0.13,0.21-0.29,0.4-0.56,0.51l0.03-0.03c-0.11,0.24-0.29,0.4-0.53,0.51l0.03-0.03
		c-0.11,0.24-0.29,0.4-0.56,0.51l0.03-0.03c-0.11,0.24-0.29,0.43-0.56,0.51l0.03-0.03c-0.11,0.24-0.27,0.43-0.56,0.51l0.05-0.03
		c-0.11,0.27-0.27,0.43-0.56,0.51l0.05-0.03c-0.08,0.27-0.27,0.45-0.56,0.51l0.05-0.05c-0.08,0.27-0.27,0.45-0.56,0.51l0.05-0.03
		c-0.05,0.29-0.24,0.45-0.56,0.51l0.05-0.05c-0.05,0.29-0.24,0.45-0.56,0.51l0.05-0.03c-0.05,0.29-0.24,0.48-0.56,0.51l0.03-0.03
		c0,0.29-0.21,0.45-0.43,0.61c0,0.16,0,0.32,0,0.48c0.59,0.77-0.03,1.74,0.45,2.54l-0.08,0.19l0.13,0.16
		c0.56,0.75-0.05,1.68,0.45,2.46l-0.03-0.05c0.75,0.88-0.08,2,0.53,2.88v-0.03c0.61,0.8,0.05,1.82,0.51,2.64l-0.08,0.11l0.08,0.11
		c0.61,0.8,0.03,1.79,0.48,2.62l-0.08,0.13l0.11,0.11c0.59,0.77,0,1.76,0.48,2.56l-0.08,0.16l0.13,0.13
		c0.59,0.77-0.03,1.74,0.45,2.54l-0.08,0.19l0.13,0.16c0.56,0.75-0.05,1.68,0.45,2.46l-0.03-0.05c0.75,0.88-0.08,2,0.53,2.88v-0.03
		c0.61,0.8,0.05,1.82,0.51,2.64l-0.08,0.11l0.08,0.11c0.61,0.8,0.03,1.79,0.48,2.62l-0.08,0.13l0.11,0.11
		c0.59,0.77,0,1.76,0.48,2.56l-0.08,0.16l0.13,0.13c0.59,0.77-0.03,1.74,0.45,2.54l-0.08,0.19l0.13,0.16
		c0.56,0.75-0.05,1.68,0.45,2.46l-0.03-0.05c0.75,0.88-0.08,2,0.53,2.88v-0.03c0.61,0.8,0.05,1.82,0.51,2.64l-0.08,0.11l0.08,0.11
		c0.61,0.8,0.03,1.79,0.48,2.62l-0.08,0.13l0.11,0.11c0.59,0.77,0,1.76,0.48,2.56l-0.08,0.16l0.13,0.13
		c0.59,0.77-0.03,1.74,0.45,2.54l-0.08,0.19l0.13,0.16c0.56,0.75-0.05,1.68,0.45,2.46v-0.05c0.75,0.88-0.08,2,0.53,2.88v-0.03
		c0.61,0.8,0.05,1.82,0.48,2.64l-0.08,0.11l0.11,0.11c0.61,0.8,0.03,1.79,0.48,2.62l-0.08,0.13l0.13,0.11
		c0.59,0.77,0,1.76,0.48,2.56l-0.08,0.16l0.13,0.13c0.59,0.77-0.03,1.74,0.45,2.54l-0.08,0.19l0.13,0.16
		c0.56,0.75-0.05,1.68,0.45,2.46v-0.05c0.75,0.88-0.08,2,0.53,2.88v-0.03c0.61,0.8,0.05,1.82,0.48,2.64l-0.08,0.11l0.11,0.11
		c0.61,0.8,0.03,1.79,0.48,2.62l-0.08,0.13l0.13,0.11c0.59,0.77,0,1.76,0.48,2.56l-0.08,0.16l0.13,0.13
		c0.59,0.77-0.03,1.74,0.45,2.54l-0.08,0.19l0.13,0.16c0.56,0.75-0.05,1.68,0.45,2.46v-0.05c0.72,0.88-0.08,2,0.53,2.88v-0.03
		c0.61,0.8,0.03,1.82,0.48,2.64l-0.08,0.11l0.11,0.11c0.61,0.8,0.03,1.79,0.48,2.59l-0.08,0.16l0.13,0.11
		c0.59,0.77,0,1.76,0.48,2.56l-0.08,0.16l0.13,0.13c0.56,0.77-0.03,1.74,0.45,2.54c-0.11,0.13-0.11,0.24,0.05,0.35
		c0.56,0.75-0.05,1.68,0.45,2.46v-0.03c0.72,0.88-0.08,2,0.53,2.88v-0.03c0.61,0.8,0.03,1.82,0.48,2.64l-0.08,0.11l0.11,0.11
		C377.01,376.29,376.43,377.28,376.91,378.11z"/>
	<path class="st1" d="M432.54,161.65c0.03,0.99-0.4,2-1.23,2.86c-0.56,0.59-1.18,1.15-1.79,1.71c-29.3,26.9-58.6,53.79-87.9,80.69
		c-2.83,2.59-5.02,5.56-6.25,9.13c-1.07,3.1-1.28,6.28-0.75,9.43c1.52,8.71,3.18,17.39,4.78,26.1c1.6,8.79,3.15,17.58,4.75,26.34
		c1.42,7.85,2.88,15.68,4.3,23.5c1.58,8.71,3.18,17.41,4.75,26.1c0.77,4.3,1.58,8.63,2.35,12.93c0.16,0.93,0.32,1.9,0.37,2.83
		c0.19,3.21-3.71,5.8-6.86,4.7c-0.85-0.29-1.68-0.72-2.51-1.12c-27.06-13.41-54.11-26.79-81.14-40.2
		c-9.35-4.62-18.7-9.24-28.02-13.89c-3.34-1.66-6.86-2.62-10.68-2.62c-3.63,0-7.02,0.85-10.2,2.43c-7.24,3.58-14.5,7.18-21.74,10.76
		c-29.3,14.5-58.57,29.01-87.88,43.54c-0.53,0.27-1.04,0.51-1.58,0.75c-1.92,0.91-3.77,0.72-5.48-0.45
		c-1.82-1.23-2.54-2.91-2.16-5.02c0.35-1.95,0.72-3.93,1.07-5.88c1.5-8.15,2.96-16.32,4.46-24.47c1.6-8.79,3.23-17.55,4.83-26.34
		c1.44-7.83,2.83-15.68,4.25-23.53c1.6-8.79,3.21-17.55,4.81-26.34c0.67-3.61,1.36-7.21,1.9-10.82c0.93-6.2-0.99-11.65-5.32-16.35
		c-0.67-0.72-1.42-1.36-2.14-2.03c-29.06-26.68-58.12-53.37-87.15-80.02c-0.53-0.51-1.1-0.99-1.63-1.5
		c-1.55-1.47-2.14-3.18-1.39-5.24c0.75-2.03,2.24-3.13,4.43-3.45c2.24-0.32,4.51-0.64,6.76-0.93c7.93-1.1,15.87-2.19,23.83-3.26
		c7.53-1.01,15.04-2.03,22.57-3.04c7.53-1.04,15.04-2.08,22.57-3.13c6.44-0.88,12.87-1.74,19.31-2.62
		c6.09-0.83,12.21-1.66,18.3-2.51c3.85-0.53,7.69-1.01,11.51-1.66c7.13-1.18,12.37-4.91,15.65-10.95c2.7-4.94,5.26-9.96,7.85-14.96
		c15.73-30.02,31.46-60.04,47.17-90.04c0.35-0.64,0.64-1.31,1.07-1.9c2.14-2.94,6.7-2.91,8.79,0.05c0.45,0.67,0.83,1.39,1.18,2.11
		c14.61,27.89,29.19,55.77,43.8,83.66c3.66,7,7.32,13.97,11,20.94c2.96,5.58,7.69,9.21,14.08,10.79c2.27,0.56,4.65,0.77,7,1.12
		c10.28,1.42,20.57,2.83,30.85,4.22c7.53,1.01,15.06,2,22.57,3.04c7.53,1.04,15.04,2.08,22.57,3.13c6.36,0.88,12.71,1.71,19.07,2.59
		c6.2,0.83,12.37,1.68,18.56,2.54c2,0.27,4.01,0.53,6.01,0.85C430.78,156.79,432.54,158.76,432.54,161.65z"/>
</g>
</svg>
